<?xml version="1.0" standalone="no"?>
<!DOCTYPE svg PUBLIC "-//W3C//DTD SVG 20010904//EN"
 "http://www.w3.org/TR/2001/REC-SVG-20010904/DTD/svg10.dtd">
<svg version="1.0" xmlns="http://www.w3.org/2000/svg"
 width="150.000000pt" height="150.000000pt" viewBox="0 0 150.000000 150.000000"
 preserveAspectRatio="xMidYMid meet">
<metadata>
Created by potrace 1.14, written by Peter Selinger 2001-2017
</metadata>
<g transform="translate(0.000000,150.000000) scale(0.100000,-0.100000)"
fill="#000000" stroke="none">
<path d="M625 1424 c-97 -18 -238 -84 -311 -146 -100 -86 -174 -196 -216 -323
-19 -59 -23 -91 -23 -205 0 -185 30 -280 131 -411 89 -116 225 -207 364 -245
86 -23 283 -24 357 -1 211 64 387 230 469 442 26 65 28 80 28 220 -1 145 -2
153 -33 231 -96 246 -288 403 -536 440 -107 16 -126 16 -230 -2z"/>
</g>
</svg>
